<?xml version="1.0" encoding="utf-8"?>
<!-- Generator: Adobe Illustrator 15.1.0, SVG Export Plug-In . SVG Version: 6.00 Build 0)  -->
<!DOCTYPE svg PUBLIC "-//W3C//DTD SVG 1.1//EN" "http://www.w3.org/Graphics/SVG/1.1/DTD/svg11.dtd">
<svg version="1.1" id="Calque_2" xmlns="http://www.w3.org/2000/svg" xmlns:xlink="http://www.w3.org/1999/xlink" x="0px" y="0px"
	 width="388.48px" height="512.58px" viewBox="0 0 388.48 512.58" enable-background="new 0 0 388.48 512.58" xml:space="preserve">
<polygon fill="none" stroke="#000000" stroke-width="2.5" stroke-miterlimit="10" points="178.304,118.808 247.638,107.475 
	253.304,129.808 180.97,142.808 "/>
<path fill="none" stroke="#000000" stroke-width="2.5" stroke-miterlimit="10" d="M278.507,220.262c0,0-1.869,7.213,12.131,16.213"
	/>
<path fill="none" stroke="#000000" stroke-width="2.5" stroke-miterlimit="10" d="M281.349,228.369
	c3.045,10.617,4.734,22.016-0.09,32.356c-4.938,10.581-14.506,19.136-24.684,24.555c-5.443,2.897-12.357,6.161-18.508,7.084
	c-21.785,3.271-51.338-1.348-61.316-23.646c-3.287-7.343-5.383-15.489-5.555-23.551"/>
<path fill="none" stroke="#000000" stroke-width="2.5" stroke-miterlimit="10" d="M181.306,143.362
	c-0.84,0.542-1.529,1.271-1.962,2.28c-1.5,3.497,0.874,9.019,1.626,12.5c0,0,78-13.667,79-15.333s-3.666-14-3.666-14l-3,1
	c-21.564,3.875-43.258,7.322-64.746,11.574C186.269,141.834,183.345,142.046,181.306,143.362z"/>
<polygon fill="none" stroke="#000000" stroke-width="2.5" stroke-miterlimit="10" points="180.97,158.142 141.97,186.142 
	143.637,190.808 326.304,158.142 259.97,142.808 "/>
<path fill="none" stroke="#000000" stroke-width="2.5" stroke-miterlimit="10" d="M294.276,220.262c0,0,6.693,35.88,8.693,49.213
	l11.668-5.667c0,0,3,12-9.668,28c0,0,6.668,7,5.668,17.667s-9.668,17.334-13.668,17.334s-21.666-33.668-29.666-33.501
	s-24.666,0-24.666,0v-1.989"/>
<path fill="none" stroke="#000000" stroke-width="2.5" stroke-miterlimit="10" d="M294.276,220.262
	c-42.334,3.333-46.307-35.454-46.307-35.454c-26,57-68,31.667-68,31.667c1.668,21.667-16,37-16,37
	c-2.332-1.667,4.055-67.028,4.055-67.028l116.506-20.835L294.276,220.262z"/>
<path fill="none" stroke="#000000" stroke-width="2.5" stroke-miterlimit="10" d="M163.97,253.475"/>
<path fill="none" stroke="#000000" stroke-width="2.5" stroke-miterlimit="10" d="M163.458,238.142l-1.821,19.667
	c-10.667-7.333-17.667-4.333-17.667-4.333c-8.332,23.667,12,28.567,12,28.567c-7.666,23.9,8,31.433,8,31.433l38.667-16l16.514-1.312
	l3.778-2.856"/>
<circle fill="none" stroke="#000000" stroke-width="2.5" stroke-miterlimit="10" cx="192.304" cy="240.391" r="4.25"/>
<circle fill="none" stroke="#000000" stroke-width="2.5" stroke-miterlimit="10" cx="266.304" cy="236.475" r="3.916"/>
<path fill="none" stroke="#000000" stroke-width="2.5" stroke-miterlimit="10" d="M189.804,260.838l77.75-7.363
	c0,0-0.652,24.316-37.25,28.567S189.804,260.838,189.804,260.838z"/>
<path fill="none" stroke="#000000" stroke-width="2.5" stroke-miterlimit="10" d="M132.054,319.391c-12,2.25-9.25,18-9.25,18
	s4.5,10.25,16.25,7.25s6.75-15.25,6.75-15.25S144.054,317.141,132.054,319.391z"/>
<path fill="none" stroke="#000000" stroke-width="2.5" stroke-miterlimit="10" d="M143.509,323.67c0,0,49.961-24.36,59.128-26.195
	l16.514-1.312c0,0-3.097,18.145,14.153,17.311s12.5-20.14,12.5-20.14l23.25-0.027c0,0,8.635,8.196,15.23,17.611
	s12.686,15.89,12.686,15.89s-15.666,19.332-15.166,19.832s-4.5-4.75-10-3.5l6.619-20.5l-14.369-7l2.25,21l16,45.5
	c0,0,0.979,1.25-3.512,2.25c-4.488,1-95.238,8.5-96.238,4.5c0,0,14-42.75,15.25-46c0,0-1.75-17.75-1.25-18.5
	s-49.693,10.5-49.693,10.5S146.362,326.56,143.509,323.67z"/>
<circle fill="none" stroke="#000000" stroke-width="2.5" stroke-miterlimit="10" cx="209.099" cy="351.643" r="5.5"/>
<circle fill="none" stroke="#000000" stroke-width="2.5" stroke-miterlimit="10" cx="253.138" cy="347.641" r="5.5"/>
<path fill="none" stroke="#000000" stroke-width="2.5" stroke-miterlimit="10" d="M197.804,342.891l15.054-1.209l53.688-4.351
	l15.758,44.81c0,0-0.043,1.898-4.305,2.38c-4.26,0.481-86.529,8.619-95.445,4.37C182.554,388.891,197.966,344.577,197.804,342.891z"
	/>
<path fill="none" stroke="#000000" stroke-width="2.5" stroke-miterlimit="10" d="M271.804,343.141
	c0.746-1.039,5.391,0.518,6.193,0.813c2.555,0.942,4.367,2.782,6.043,4.866c2.777,3.454,4.176,8.157,2.873,12.485
	c-1.107,3.683-4.682,8.668-9.24,7.666l-8.027-22.829C269.646,346.143,271.802,343.143,271.804,343.141z"/>
<path fill="none" stroke="#000000" stroke-width="2.5" stroke-miterlimit="10" d="M197.137,389.643c0,0-4.333,23-3.5,24.5
	s8.441,4.334,19.221,2.667c0,0,10.264-22.086,11.104-27.793L197.137,389.643z"/>
<path fill="none" stroke="#000000" stroke-width="2.5" stroke-miterlimit="10" d="M236.637,387.977l11.001,30.166
	c0,0,18.5-3.832,19-4.666s-3.473-27.529-3.473-27.529L236.637,387.977z"/>
<path fill="none" stroke="#000000" stroke-width="2.5" stroke-miterlimit="10" d="M193.637,414.143c0,0-2.833-0.666-2.833,1.167
	s-0.834,24.833-0.834,25.833s-10.333,1.333-19,11.5c0,0,30.834,4.167,35.167,1.667c0,0,1.424-12.666,2.962-17.333
	s6.462-14.149,5.5-19.658l-1.741-0.509C212.857,416.81,199.637,418.809,193.637,414.143z"/>
<path fill="none" stroke="#000000" stroke-width="2.5" stroke-miterlimit="10" d="M247.638,418.143c0,0-4.5,1.667-4.5,2.167
	s10,34.799,10,34.799s-1.457,1.535-1.479,2.868s29.812,1,31.979,0c0,0-14.166-7.501-16-10.334c0,0,0.998-22.5,3.166-32.833
	c0,0-1.793-2.195-4.166-1.333L247.638,418.143z"/>
<path fill="none" stroke="#000000" stroke-width="2.5" stroke-miterlimit="10" d="M119.804,260.838c0,0,3.5-2.697,11.5-4.197
	c0,0,1.785,41,3.393,50s3.107,11.584,3.107,11.584l1.111,1.639c0,0-5.641-2.436-11.293,1.338
	C127.622,321.201,122.137,272.035,119.804,260.838z"/>
<path fill="none" stroke="#000000" stroke-width="2.5" stroke-miterlimit="10" d="M131.026,344.617c0,0,2.277,29.525,2.61,37.358
	s7.667,63,8.667,64.5s6.666,3.667,7.666,0c0,0-1.5-17.334-1.833-22.167s-9.083-79.668-9.083-79.668S133.7,345.798,131.026,344.617z"
	/>
<path fill="none" stroke="#000000" stroke-width="2.5" stroke-miterlimit="10" d="M131.304,256.641
	c-3.369,0.962-11.5,4.197-11.5,4.197h-2.002l-3.166-19.029c9-3.667,16.334-3,16.334-3l2.709,17.832
	C133.679,256.641,132.179,256.391,131.304,256.641z"/>
<path fill="none" stroke="#000000" stroke-width="2.5" stroke-miterlimit="10" d="M114.636,241.809c0,0-15.707,1.832-17.957-2.418
	c0,0-8.125-58.5-7.375-59.125s2-2.125,3.625,0s8.158,44.875,9.016,46.875c0.859,2,3.734,8,11.984,6.25c0,0,6.625-0.044,5.875-5.022
	s-9.125-52.978-9.125-52.978s0.125-3.125,2.125-3s3.625,6.5,3.625,6.5l10.375,50.125c0,0,17.625-3.757,17.625-8.753
	s-10.625-49.497-9.75-49.997s1.5-2.125,3.375-0.875s5.023,15.957,5.023,15.957l7.852,41.793c0,0-13.9,12.224-19.826,12.549
	l-0.133-0.881C130.97,238.809,122.218,238.478,114.636,241.809z"/>
<path fill="#FFFFFF" stroke="#000000" stroke-width="2.5" stroke-miterlimit="10" d="M249.554,293.308c0,0-0.5,46.665,0,48.374
	s3.25-1.041,7.5,1.459l1.5-49.833H249.554z"/>
<path fill="#FFFFFF" stroke="#000000" stroke-width="2.5" stroke-miterlimit="10" d="M203.599,297.398
	c0,0,1.537,20.075,0.705,24.242c-0.834,4.167,0.247,26,0.247,26s4.704-3.378,7.896-0.355c0,0,0.926-50.662,0-50.589L203.599,297.398
	z"/>
</svg>
